<svg id="visual" viewBox="0 0 960 540" width="960" height="540" xmlns="http://www.w3.org/2000/svg" xmlns:xlink="http://www.w3.org/1999/xlink" version="1.1"><rect x="0" y="0" width="960" height="540" fill="#badfef"></rect><path d="M0 354L137 363L274 350L411 369L549 329L686 382L823 394L960 397L960 541L823 541L686 541L549 541L411 541L274 541L137 541L0 541Z" fill="#f5730a"></path><path d="M0 414L137 427L274 408L411 411L549 407L686 370L823 370L960 357L960 541L823 541L686 541L549 541L411 541L274 541L137 541L0 541Z" fill="#da5b09"></path><path d="M0 412L137 396L274 425L411 450L549 452L686 417L823 458L960 407L960 541L823 541L686 541L549 541L411 541L274 541L137 541L0 541Z" fill="#be4407"></path><path d="M0 458L137 452L274 473L411 437L549 448L686 468L823 484L960 487L960 541L823 541L686 541L549 541L411 541L274 541L137 541L0 541Z" fill="#a32d04"></path><path d="M0 508L137 485L274 515L411 512L549 488L686 483L823 509L960 514L960 541L823 541L686 541L549 541L411 541L274 541L137 541L0 541Z" fill="#871400"></path></svg>