<svg id="visual" viewBox="0 0 960 540" width="960" height="540" xmlns="http://www.w3.org/2000/svg" xmlns:xlink="http://www.w3.org/1999/xlink" version="1.1"><path d="M0 427L40 432C80 437 160 447 240 450C320 453 400 449 480 444.2C560 439.3 640 433.7 720 432.5C800 431.3 880 434.7 920 436.3L960 438L960 541L920 541C880 541 800 541 720 541C640 541 560 541 480 541C400 541 320 541 240 541C160 541 80 541 40 541L0 541Z" fill="#3e6978"></path><path d="M0 444L40 449.7C80 455.3 160 466.7 240 470C320 473.3 400 468.7 480 463.3C560 458 640 452 720 455.3C800 458.7 880 471.3 920 477.7L960 484L960 541L920 541C880 541 800 541 720 541C640 541 560 541 480 541C400 541 320 541 240 541C160 541 80 541 40 541L0 541Z" fill="#4f8497"></path><path d="M0 498L40 497C80 496 160 494 240 496C320 498 400 504 480 503.2C560 502.3 640 494.7 720 489.7C800 484.7 880 482.3 920 481.2L960 480L960 541L920 541C880 541 800 541 720 541C640 541 560 541 480 541C400 541 320 541 240 541C160 541 80 541 40 541L0 541Z" fill="#60a1b8"></path></svg>